<svg height="64" viewBox="-6.717 -2.153 64 64" width="64" xmlns="http://www.w3.org/2000/svg" xmlns:xlink="http://www.w3.org/1999/xlink"><linearGradient id="a"><stop offset="0" stop-color="#fff" stop-opacity="0"/><stop offset="1" stop-color="#fff"/></linearGradient><linearGradient id="b" gradientUnits="userSpaceOnUse" x1="41.016" x2="131.946" xlink:href="#a" y1="47.9" y2="47.9"/><linearGradient id="c" gradientUnits="userSpaceOnUse" x1="49.732" x2="92.627" xlink:href="#a" y1="64.314" y2="9.573"/><linearGradient id="d" gradientUnits="userSpaceOnUse" x1="44.86" x2="-3.985" xlink:href="#a" y1="56.606" y2="96.177"/><linearGradient id="e" gradientUnits="userSpaceOnUse" x1="44.189" x2="245.247" xlink:href="#a" y1="7.928" y2="180.396"/><linearGradient id="f" gradientUnits="userSpaceOnUse" x1="11.312" x2="9.965" y1="16.152" y2="88.552"><stop offset="0" stop-color="#1a3b54" stop-opacity="0"/><stop offset="1" stop-color="#1a3b54"/></linearGradient><g fill-rule="evenodd" transform="matrix(.586741 0 0 .586741 -3.54477 -2.152986)"><g><path d="m54.6 1.483 37.75 21.795c3.564 2.057 5.458 5.44 5.458 9.758v43.356c0 4.098-1.855 7.32-5.373 9.35l-37.675 21.758c-3.657 2.1-7.615 2.102-11.293-.023l-37.593-21.704c-2.978-1.72-5.426-5.18-5.426-9.548v-45.125c0-3.963 1.87-5.964 5.37-7.985l15.055-8.694v56.42l28.26 16.314 28.267-16.303v-32.63l-28.267-16.314-11.878 6.857v-23.585l6.414-3.703a10.85 10.85 0 0 1 10.94.007z" fill="#2a5d84"/><path d="m37.27 61.326v-13.702l11.865-6.85 11.865 6.85v13.702l-11.865 6.85-5.935-3.426z" fill="#1a3b54"/></g><path d="m37.693 47.868 11.44 6.67 11.442-6.67-11.44-6.605z" fill="url(#b)"/><path d="m60.575 47.868-11.44 6.607v13.225l11.44-6.608z" fill="url(#c)"/><path d="m37.693 47.868 11.44 6.607v13.225l-11.44-6.608z" fill="url(#d)"/><path d="m37.68 5.424v22.606l11.452-6.612 28.68 16.56v.118l18.28-10.505c-.87-1.6-2.18-2.926-3.948-3.947l-37.747-21.794c-3.287-1.9-7.23-1.903-10.514-.01z" fill="url(#e)"/><path d="m20.452 71.06v-.207l.08-56.42-14.42 8.325c-3.36 1.942-5.24 4.53-5.24 8.355v45.114c0 1.873.5 3.696 1.384 5.288z" fill="url(#f)"/></g></svg>