<svg enable-background="new 0 0 64 64" height="64" viewBox="0 0 64 64" width="64" xmlns="http://www.w3.org/2000/svg" xmlns:xlink="http://www.w3.org/1999/xlink"><radialGradient id="a" cx="-362.0611" cy="337.8071" gradientTransform="matrix(159.1024 0 0 -159.1024 57662.0117 53758.0781)" gradientUnits="userSpaceOnUse" r=".4564"><stop offset="0" stop-color="#fff44f"/><stop offset=".29" stop-color="#ff980e"/><stop offset=".43" stop-color="#ff5d36"/><stop offset=".53" stop-color="#ff3750"/><stop offset=".75" stop-color="#f5156c"/><stop offset=".76" stop-color="#f1136e"/><stop offset=".88" stop-color="#da057a"/><stop offset=".95" stop-color="#d2007f"/></radialGradient><radialGradient id="b" cx="-362.3857" cy="337.7883" gradientTransform="matrix(159.1024 0 0 -159.1024 57661.7344 53758.0781)" gradientUnits="userSpaceOnUse" r=".2701"><stop offset="0" stop-color="#b5007f"/><stop offset="1" stop-color="#f5156c" stop-opacity="0"/></radialGradient><radialGradient id="c" cx="-362.0223" cy="337.8331" gradientTransform="matrix(159.1024 0 0 -159.1024 57662.043 53758.0781)" gradientUnits="userSpaceOnUse" r=".536"><stop offset="0" stop-color="#fd0" stop-opacity=".6"/><stop offset=".09" stop-color="#ffd702" stop-opacity=".58"/><stop offset=".2" stop-color="#fec606" stop-opacity=".52"/><stop offset=".32" stop-color="#fda90e" stop-opacity=".43"/><stop offset=".45" stop-color="#fc8119" stop-opacity=".3"/><stop offset=".57" stop-color="#fa4e27" stop-opacity=".14"/><stop offset=".66" stop-color="#f92433" stop-opacity="0"/></radialGradient><radialGradient id="d" cx="-362.2074" cy="337.6599" gradientTransform="matrix(159.1024 0 0 -159.1024 57661.8867 53758.0781)" gradientUnits="userSpaceOnUse" r=".6914"><stop offset=".15" stop-color="#960e18"/><stop offset=".18" stop-color="#b11927" stop-opacity=".74"/><stop offset=".22" stop-color="#db293d" stop-opacity=".34"/><stop offset=".26" stop-color="#f5334b" stop-opacity=".09"/><stop offset=".27" stop-color="#ff3750" stop-opacity="0"/></radialGradient><radialGradient id="e" cx="-362.2594" cy="337.6686" gradientTransform="matrix(159.1024 0 0 -159.1024 57661.8438 53758.0781)" gradientUnits="userSpaceOnUse" r=".6914"><stop offset=".11" stop-color="#960e18"/><stop offset=".15" stop-color="#b11927" stop-opacity=".74"/><stop offset=".21" stop-color="#db293d" stop-opacity=".34"/><stop offset=".26" stop-color="#f5334b" stop-opacity=".09"/><stop offset=".28" stop-color="#ff3750" stop-opacity="0"/></radialGradient><linearGradient id="f" gradientTransform="matrix(114.9722 0 0 -75.9117 41686.8516 25556.4492)" gradientUnits="userSpaceOnUse" x1="-362.2329" x2="-362.0692" y1="336.5367" y2="336.3495"><stop offset="0" stop-color="#ffbc04"/><stop offset=".17" stop-color="#ffab02" stop-opacity=".62"/><stop offset=".34" stop-color="#ff9b01" stop-opacity=".29"/><stop offset=".45" stop-color="#ff9200" stop-opacity=".08"/><stop offset=".51" stop-color="#ff8e00" stop-opacity="0"/></linearGradient><radialGradient id="g" cx="-362.0385" cy="337.6938" gradientTransform="matrix(142.6366 0 0 -142.6366 51695.3867 48177.2266)" gradientUnits="userSpaceOnUse" r=".4784"><stop offset="0" stop-color="#ff980e"/><stop offset=".3" stop-color="#ff7139"/><stop offset=".48" stop-color="#ff5b51"/><stop offset=".63" stop-color="#ff4f5e"/><stop offset=".74" stop-color="#ff4055"/><stop offset=".84" stop-color="#ff3750"/></radialGradient><radialGradient id="h" cx="-362.0385" cy="337.6938" gradientTransform="matrix(142.6366 0 0 -142.6366 51695.3867 48177.2266)" gradientUnits="userSpaceOnUse" r=".4784"><stop offset=".08" stop-color="#ffde08"/><stop offset=".15" stop-color="#ffdb08" stop-opacity=".97"/><stop offset=".25" stop-color="#ffd209" stop-opacity=".88"/><stop offset=".37" stop-color="#ffc40b" stop-opacity=".73"/><stop offset=".51" stop-color="#ffb00d" stop-opacity=".53"/><stop offset=".67" stop-color="#ff970f" stop-opacity=".28"/><stop offset=".82" stop-color="#ff7b12" stop-opacity="0"/></radialGradient><radialGradient id="i" cx="-361.4239" cy="338.456" gradientTransform="matrix(35.5987 138.1229 138.1229 -35.5987 -33842.1055 62000.6016)" gradientUnits="userSpaceOnUse" r=".2348"><stop offset=".36" stop-color="#ff3750"/><stop offset=".44" stop-color="#ff4d47" stop-opacity=".63"/><stop offset=".55" stop-color="#ff673d" stop-opacity=".18"/><stop offset=".59" stop-color="#ff7139" stop-opacity="0"/></radialGradient><radialGradient id="j" cx="-362.1873" cy="337.5266" gradientTransform="matrix(142.6366 0 0 -142.6366 51695.3711 48177.2266)" gradientUnits="userSpaceOnUse" r=".2344"><stop offset=".22" stop-color="#ff3750" stop-opacity=".8"/><stop offset=".27" stop-color="#ff444b" stop-opacity=".63"/><stop offset=".41" stop-color="#ff643e" stop-opacity=".18"/><stop offset=".47" stop-color="#ff7139" stop-opacity="0"/></radialGradient><radialGradient id="k" cx="-361.8749" cy="337.3981" gradientTransform="matrix(110.368 0 0 -110.368 40008.457 37239.9648)" gradientUnits="userSpaceOnUse" r="1.045"><stop offset=".05" stop-color="#fff44f"/><stop offset=".46" stop-color="#ff980e"/><stop offset=".52" stop-color="#ff8424"/><stop offset=".59" stop-color="#ff7634"/><stop offset=".64" stop-color="#ff7139"/></radialGradient><linearGradient id="l" gradientTransform="matrix(159.4285 0 0 -141.8605 57780.125 47930.3203)" gradientUnits="userSpaceOnUse" x1="-362.1256" x2="-362.3305" y1="337.7865" y2="337.4708"><stop offset="0" stop-color="#fff44f" stop-opacity=".8"/><stop offset=".09" stop-color="#fff44f" stop-opacity=".7"/><stop offset=".75" stop-color="#fff44f" stop-opacity="0"/></linearGradient><linearGradient id="m" gradientTransform="matrix(108.9196 0 0 -99.6268 39482.63670000001 33595.8555)" gradientUnits="userSpaceOnUse" x1="-362.1554" x2="-362.1554" y1="336.8134" y2="337.2123"><stop offset="0" stop-color="#3a8ee6"/><stop offset=".24" stop-color="#5c79f0"/><stop offset=".63" stop-color="#9059ff"/><stop offset="1" stop-color="#c139e6"/></linearGradient><linearGradient id="n" gradientTransform="matrix(108.9196 0 0 -99.6268 39482.63670000001 33595.8555)" gradientUnits="userSpaceOnUse" x1="-362.2926" x2="-361.9965" y1="337.1786" y2="336.9077"><stop offset=".81" stop-color="#9059ff" stop-opacity="0"/><stop offset="1" stop-color="#6e008b" stop-opacity=".5"/></linearGradient><path d="m57.6 12.6c-5.8-7.6-14.8-12.3-24.3-12.5-7.4-.1-12.6 2.1-15.5 3.9 3.9-2.2 9.5-3.5 14.4-3.5 12.7.2 26.3 8.8 28.3 24.3 2.3 17.8-10.1 32.7-27.6 32.7-19.2 0-30.9-17-27.9-32.2.2-.8.1-1.5.3-2.2.1-2.7 1.2-6.9 3.4-11.2-2.2 1.1-5 4.8-6.4 8.1-2 4.8-2.7 10.6-2.1 16.1 0 .4.1.8.1 1.2 2.2 13.1 12.3 23.4 25.4 26 13 2.6 26.3-3.1 33.4-14.4s6.4-25.7-1.5-36.3z" fill="url(#a)"/><path d="m57.6 12.6c-5.8-7.6-14.8-12.3-24.3-12.5-7.4-.1-12.6 2.1-15.5 3.9 3.9-2.2 9.5-3.5 14.4-3.5 12.7.2 26.3 8.8 28.3 24.3 2.3 17.8-10.1 32.7-27.6 32.7-19.2 0-30.9-17-27.9-32.2.2-.8.1-1.5.3-2.2.1-2.7 1.2-6.9 3.4-11.2-2.2 1.1-5 4.8-6.4 8.1-2 4.8-2.7 10.6-2.1 16.1 0 .4.1.8.1 1.2 2.2 13.1 12.3 23.4 25.4 26 13 2.6 26.3-3.1 33.4-14.4s6.4-25.7-1.5-36.3z" fill="url(#b)"/><path d="m57.6 12.6c-5.8-7.6-14.8-12.3-24.3-12.5-7.4-.1-12.6 2.1-15.5 3.9 3.9-2.2 9.5-3.5 14.4-3.5 12.7.2 26.3 8.8 28.3 24.3 2.3 17.8-10.1 32.7-27.6 32.7-19.2 0-30.9-17-27.9-32.2.2-.8.1-1.5.3-2.2.1-2.7 1.2-6.9 3.4-11.2-2.2 1.1-5 4.8-6.4 8.1-2 4.8-2.7 10.6-2.1 16.1 0 .4.1.8.1 1.2 2.2 13.1 12.3 23.4 25.4 26 13 2.6 26.3-3.1 33.4-14.4s6.4-25.7-1.5-36.3z" fill="url(#c)"/><path d="m57.6 12.6c-5.8-7.6-14.8-12.3-24.3-12.5-7.4-.1-12.6 2.1-15.5 3.9 3.9-2.2 9.5-3.5 14.4-3.5 12.7.2 26.3 8.8 28.3 24.3 2.3 17.8-10.1 32.7-27.6 32.7-19.2 0-30.9-17-27.9-32.2.2-.8.1-1.5.3-2.2.1-2.7 1.2-6.9 3.4-11.2-2.2 1.1-5 4.8-6.4 8.1-2 4.8-2.7 10.6-2.1 16.1 0 .4.1.8.1 1.2 2.2 13.1 12.3 23.4 25.4 26 13 2.6 26.3-3.1 33.4-14.4s6.4-25.7-1.5-36.3z" fill="url(#d)"/><path d="m57.6 12.6c-5.8-7.6-14.8-12.3-24.3-12.5-7.4-.1-12.6 2.1-15.5 3.9 3.9-2.2 9.5-3.5 14.4-3.5 12.7.2 26.3 8.8 28.3 24.3 2.3 17.8-10.1 32.7-27.6 32.7-19.2 0-30.9-17-27.9-32.2.2-.8.1-1.5.3-2.2.1-2.7 1.2-6.9 3.4-11.2-2.2 1.1-5 4.8-6.4 8.1-2 4.8-2.7 10.6-2.1 16.1 0 .4.1.8.1 1.2 2.2 13.1 12.3 23.4 25.4 26 13 2.6 26.3-3.1 33.4-14.4s6.4-25.7-1.5-36.3z" fill="url(#e)"/><path d="m60.5 24.8c.3 1.9.3 3.9.2 5.8 1.1-.2 2.1-.3 3.2-.4-.3-6.3-2.6-12.4-6.4-17.5-5.7-7.7-14.7-12.4-24.2-12.6-7.4-.1-12.6 2.1-15.5 3.9 3.9-2.2 9.5-3.5 14.4-3.5 12.7.1 26.3 8.7 28.3 24.3z" fill="url(#f)"/><path d="m61.3 23.9c-1.8-16.2-16.3-23.5-29.1-23.4-4.9 0-10.5 1.2-14.4 3.5-1 .6-2 1.3-2.8 2.2.1-.1.4-.3.9-.7h.1c1.9-1.3 4-2.2 6.2-2.9 3.4-1 7-1.3 10.5-1.2 14.4.8 24.6 12.8 25 25.5.3 10.5-8.4 18.9-18.3 19.4-7.2.4-14.1-3.1-17.4-10.1-.8-1.6-1.3-3.3-1.6-5.1-1.6-10.7 5.6-19.8 12.1-22.1-3.5-3.1-12.4-2.8-19 2-4.8 3.5-7.9 8.8-8.9 15.2-.8 4.8 0 9.8 1.9 14.3 4.2 9.8 13.5 16.4 24.1 17.1.8.1 1.6.1 2.4.1 21.1 0 30.3-16 28.3-33.8z" fill="url(#g)"/><path d="m61.3 23.9c-1.8-16.2-16.3-23.5-29.1-23.4-4.9 0-10.5 1.2-14.4 3.5-1 .6-2 1.3-2.8 2.2.1-.1.4-.3.9-.7h.1c1.9-1.3 4-2.2 6.2-2.9 3.4-1 7-1.3 10.5-1.2 14.4.8 24.6 12.8 25 25.5.3 10.5-8.4 18.9-18.3 19.4-7.2.4-14.1-3.1-17.4-10.1-.8-1.6-1.3-3.3-1.6-5.1-1.6-10.7 5.6-19.8 12.1-22.1-3.5-3.1-12.4-2.8-19 2-4.8 3.5-7.9 8.8-8.9 15.2-.8 4.8 0 9.8 1.9 14.3 4.2 9.8 13.5 16.4 24.1 17.1.8.1 1.6.1 2.4.1 21.1 0 30.3-16 28.3-33.8z" fill="url(#h)"/><path d="m61.3 23.9c-1.8-16.2-16.3-23.5-29.1-23.4-4.9 0-10.5 1.2-14.4 3.5-1 .6-2 1.3-2.8 2.2.1-.1.4-.3.9-.7h.1c1.9-1.3 4-2.2 6.2-2.9 3.4-1 7-1.3 10.5-1.2 14.4.8 24.6 12.8 25 25.5.3 10.5-8.4 18.9-18.3 19.4-7.2.4-14.1-3.1-17.4-10.1-.8-1.6-1.3-3.3-1.6-5.1-1.6-10.7 5.6-19.8 12.1-22.1-3.5-3.1-12.4-2.8-19 2-4.8 3.5-7.9 8.8-8.9 15.2-.8 4.8 0 9.8 1.9 14.3 4.2 9.8 13.5 16.4 24.1 17.1.8.1 1.6.1 2.4.1 21.1 0 30.3-16 28.3-33.8z" fill="url(#i)" opacity=".53"/><path d="m61.3 23.9c-1.8-16.2-16.3-23.5-29.1-23.4-4.9 0-10.5 1.2-14.4 3.5-1 .6-2 1.3-2.8 2.2.1-.1.4-.3.9-.7h.1c1.9-1.3 4-2.2 6.2-2.9 3.4-1 7-1.3 10.5-1.2 14.4.8 24.6 12.8 25 25.5.3 10.5-8.4 18.9-18.3 19.4-7.2.4-14.1-3.1-17.4-10.1-.8-1.6-1.3-3.3-1.6-5.1-1.6-10.7 5.6-19.8 12.1-22.1-3.5-3.1-12.4-2.8-19 2-4.8 3.5-7.9 8.8-8.9 15.2-.8 4.8 0 9.8 1.9 14.3 4.2 9.8 13.5 16.4 24.1 17.1.8.1 1.6.1 2.4.1 21.1 0 30.3-16 28.3-33.8z" fill="url(#j)" opacity=".53"/><path d="m39.4 46.2c13.6-.8 19.5-12.1 19.9-20.1.6-12.5-6.9-26-26.6-24.8-3.5-.1-7.2.2-10.5 1.2-2.2.6-4.3 1.6-6.2 2.9h-.1c-.3.2-.6.4-.9.7.5-.4 7.3-4.4 16.8-3.1 11.3 1.5 21.7 10.3 21.7 21.8 0 8.9-6.9 15.7-15 15.2-12-.7-15-13-8.8-18.3-1.7-.4-4.9.3-7.1 3.6-2 3-1.9 7.5-.6 10.7 3.3 7.1 10.1 10.7 17.4 10.2z" fill="url(#k)"/><path d="m57.6 12.6c-.9-1.1-1.8-2.2-2.8-3.2-.8-.8-1.6-1.6-2.5-2.3.5.5 1 .9 1.5 1.4 1.7 1.9 3.1 4.1 3.9 6.5 1.7 5.1 1.6 11.4-1.6 16.3-3.8 5.9-10 8.8-16.7 8.7-.3 0-.6 0-.9 0-12-.7-15-13-8.8-18.3-1.7-.4-4.9.3-7.1 3.6-2 3-1.9 7.5-.6 10.7-.8-1.6-1.3-3.3-1.6-5.1-1.6-10.5 5.6-19.6 12.1-21.9-3.5-3.1-12.4-2.9-19 2-3.9 2.8-6.6 6.9-8.1 11.7.2-2.7 1.2-6.7 3.3-10.9-2.2 1.1-5 4.8-6.4 8.1-2 4.8-2.7 10.6-2.1 16.1 0 .4.1.8.1 1.2 2.2 13.1 12.3 23.4 25.4 26s26.3-3 33.4-14.3 6.4-25.7-1.5-36.3z" fill="url(#l)"/><path d="m57.6 15c-.8-2.4-2.1-4.6-3.9-6.5-2-2.2-4.6-3.9-7.3-5.2-2.3-1.1-4.7-2-7.2-2.5-4.4-1-8.9-1-13.3-.1-4.5 1-8.5 2.9-11.1 5.4 2.1-1.1 4.7-2.1 6.6-2.6 8.7-2.2 18.4.2 24.9 6.5 1.3 1.3 2.5 2.7 3.5 4.2 3.9 6.4 3.5 14.3.5 19-2.3 3.5-7.1 6.8-11.7 6.7 7 .4 13.4-2.6 17.4-8.7 3.2-4.8 3.3-11.1 1.6-16.2z" fill="url(#m)"/><path d="m57.6 15c-.8-2.4-2.1-4.6-3.9-6.5-2-2.2-4.6-3.9-7.3-5.2-2.3-1.1-4.7-2-7.2-2.5-4.4-1-8.9-1-13.3-.1-4.5 1-8.5 2.9-11.1 5.4 2.1-1.1 4.7-2.1 6.6-2.6 8.7-2.2 18.4.2 24.9 6.5 1.3 1.3 2.5 2.7 3.5 4.2 3.9 6.4 3.5 14.3.5 19-2.3 3.5-7.1 6.8-11.7 6.7 7 .4 13.4-2.6 17.4-8.7 3.2-4.8 3.3-11.1 1.6-16.2z" fill="url(#n)"/></svg>