<svg height="64" viewBox="0 0 32 32" width="64" xmlns="http://www.w3.org/2000/svg" xmlns:xlink="http://www.w3.org/1999/xlink"><linearGradient id="a"><stop offset="0"/><stop offset="1" stop-opacity="0"/></linearGradient><linearGradient id="b"><stop offset="0" stop-color="#fff"/><stop offset="1" stop-color="#fff" stop-opacity="0"/></linearGradient><linearGradient id="c" gradientTransform="matrix(.755165 .395143 -.395143 .755165 -25.91245 6.532586)" gradientUnits="userSpaceOnUse" x1="13.236155" x2="7.752109" xlink:href="#b" y1="37.752247" y2="42.282146"/><radialGradient id="d" cx="15.415101" cy="35.356506" gradientTransform="matrix(1.572694 0 0 1.532639 -55.36682 -21.35823)" gradientUnits="userSpaceOnUse" r="7.579156"><stop offset="0" stop-color="#696969"/><stop offset="1"/></radialGradient><linearGradient id="e" gradientUnits="userSpaceOnUse" x1="-27.012215" x2="-23.297619" y1="28.198475" y2="31.635975"><stop offset="0" stop-color="#bdbdbd"/><stop offset=".33333334" stop-color="#e2e2e2"/><stop offset=".66666669" stop-color="#a3a3a3"/><stop offset="1" stop-color="#ddd"/></linearGradient><linearGradient id="f" gradientUnits="userSpaceOnUse" x1="-12.287321" x2="-21.551067" y1="21.117612" y2="13.060211"><stop offset="0" stop-color="#6e3d09"/><stop offset=".24242425" stop-color="#ea8113"/><stop offset=".62121212" stop-color="#5c3307"/><stop offset="1" stop-color="#e07c12"/></linearGradient><linearGradient id="g" gradientUnits="userSpaceOnUse" x1="6.305153" x2="5.984629" xlink:href="#b" y1="23.362427" y2="31.57"/><radialGradient id="h" cx="69.47323853507" cy="19.59787596846" gradientUnits="userSpaceOnUse" r="4.63489932523"><stop offset="0" stop-color="#fff"/><stop offset="1" stop-color="#b9b9b0"/></radialGradient><radialGradient id="i" cx="23" cy="33.9375" gradientTransform="matrix(1 0 0 .284247 0 24.29088)" gradientUnits="userSpaceOnUse" r="18.25" xlink:href="#a"/><linearGradient id="j" gradientUnits="userSpaceOnUse" x1="14.96875" x2="39.524544" xlink:href="#b" y1="19.110678" y2="46.98568"/><radialGradient id="k" cx="6.024219" cy="25.271027" gradientTransform="matrix(.916159 .09318684 -.108765 1.069309 3.253668 -3.029272)" gradientUnits="userSpaceOnUse" r="4.831029"><stop offset="0" stop-color="#5b676b"/><stop offset="1" stop-color="#141718"/></radialGradient><linearGradient id="l" gradientUnits="userSpaceOnUse" x1="26.162951" x2="24.328892" xlink:href="#a" y1="30.543303" y2="30.985245"/><linearGradient id="m" gradientUnits="userSpaceOnUse" x1="28.513587" x2="17.376654" xlink:href="#a" y1="28.429326" y2="30.639035"/><radialGradient id="n" cx="18.557627" cy="22.300018" gradientTransform="matrix(1.77275 0 0 1.29668 -16.3404 -6.615959)" gradientUnits="userSpaceOnUse" r="19.2292"><stop offset="0" stop-color="#857c63"/><stop offset="1" stop-color="#221f19"/></radialGradient><g transform="matrix(.6993702 0 0 .6993702 -.432226 -.801379)"><path d="m41.25 33.9375a18.25 5.1875 0 1 1 -36.5 0 18.25 5.1875 0 1 1 36.5 0z" fill="url(#i)" fill-rule="evenodd" transform="matrix(1 0 0 1.53012 .125 -19.99096)"/><path d="m10.374369 12.467884s2.874509 5.927634 9.599242 5.760407c14.092515-.353553 16.563709-7.70495 16.917262-8.7656106.353554-1.0606602.894534-.8999979 1.019607.080267 4.596194 41.7192996-31.8969312 23.8191756-33.1929656 16.7135196 7.2478446-2.12132 5.4800776-6.187185 5.4800776-6.187185z" fill="url(#n)" fill-rule="evenodd" stroke="#2e3436" stroke-miterlimit="10"/><path d="m15.73779 30.066049c6.7389 1.347837 10.170691.09809 12.179175-1.452776-.53033-.68501-1.43631-1.436311-1.43631-1.436311s2.353317.653942 3.18198 1.723573c.82629 1.066568.306808 1.723707.09056 3.08837-.481411-1.198599-1.379981-1.648092-1.501634-2.124332-1.806268 2.496927-6.306442 2.3932-12.513772.201476z" fill="url(#m)" fill-rule="evenodd"/><path d="m36.96875 11.84375c-.561978.926895-1.406492 2.033166-2.6875 3.09375-2.631918 2.179042-7.050563 4.162347-14.28125 4.34375-4.224373.105049-6.952741-1.934149-8.625-3.75l-.125 4.46875c.136107.418802.415455 1.390498-.0625 2.71875-.514314 1.429296-2.154514 2.891363-4.96875 4 .2503304.522033.4954845 1.04362 1.25 1.78125 1.0279503 1.004945 2.4570333 2.088049 4.15625 3.0625 3.398433 1.948902 7.801583 3.493212 11.90625 3.5625 4.104667.06929 7.857126-1.23455 10.4375-5 2.378744-3.471218 3.682473-9.347943 3-18.28125z" fill="none" opacity=".185393" stroke="url(#j)" stroke-miterlimit="10"/><path d="m72.655224 21.837049a3.1819806 3.1819806 0 1 1 -6.363961 0 3.1819806 3.1819806 0 1 1 6.363961 0z" fill="url(#h)" fill-rule="evenodd" stroke="#888a85" stroke-miterlimit="10" stroke-width=".782608" transform="matrix(1.277778 0 0 1.277778 -75.12661 -6.507784)"/><path d="m10.429825 27.228739a4.331029 6.098796 0 1 1 -8.662058 0 4.331029 6.098796 0 1 1 8.662058 0z" fill="url(#k)" fill-rule="evenodd" stroke="#000" stroke-miterlimit="10" transform="matrix(.810984 -.585069 .585069 .810984 -14.77791 6.947121)"/><path d="m24.041631 21.837049a2.2980971 2.2980971 0 1 1 -4.596194 0 2.2980971 2.2980971 0 1 1 4.596194 0z" fill="#2e3436" fill-rule="evenodd" stroke="#000" stroke-miterlimit="10" stroke-width="1.173913" transform="matrix(.851852 0 0 .851852 -3.926759 3.395528)"/><path d="m6.09375 22.15625c-.7982492 0-1.5531304.446171-2.1875 1.34375s-1.09375 2.234204-1.09375 3.71875.4593804 2.821171 1.09375 3.71875 1.3892511 1.34375 2.1875 1.34375c.7982492 0 1.5772839-.476389 2.21875-1.375s1.09375-2.206186 1.09375-3.6875-.4522838-2.788889-1.09375-3.6875-1.4205011-1.375-2.21875-1.375z" fill="none" opacity=".280899" stroke="url(#g)" stroke-miterlimit="10" transform="matrix(.800389 -.599481 .599481 .800389 -15.2744 7.32784)"/><g fill-rule="evenodd"><path d="m5.833631 23.251263a1.767767 2.1213202 0 1 1 -3.5355339 0 1.767767 2.1213202 0 1 1 3.5355339 0z" fill="#fff"/><path d="m23.157747 20.953165a1.767767 1.767767 0 1 1 -3.535534 0 1.767767 1.767767 0 1 1 3.535534 0z" fill="#fff" transform="matrix(.766666 0 0 .766666 -2.556414 5.029841)"/><path d="m72.655224 21.837049a3.1819806 3.1819806 0 1 1 -6.363961 0 3.1819806 3.1819806 0 1 1 6.363961 0z" fill="url(#h)" stroke="#888a85" stroke-miterlimit="10" stroke-width=".666666" transform="matrix(1.5 0 0 1.5 -82.16821 -10.91852)"/><path d="m24.041631 21.837049a2.2980971 2.2980971 0 1 1 -4.596194 0 2.2980971 2.2980971 0 1 1 4.596194 0z" fill="#2e3436" stroke="#000" stroke-miterlimit="10" transform="translate(1.414216 .707108)"/><path d="m23.157747 20.953165a1.767767 1.767767 0 1 1 -3.535534 0 1.767767 1.767767 0 1 1 3.535534 0z" fill="#fff" transform="matrix(.9 0 0 .9 3.022883 2.625648)"/></g><g transform="matrix(-.114852 -.389864 .389864 -.114852 24.71507 29.68942)"><g stroke-linecap="round" stroke-width="2.460453"><path d="m-23.364209 23.568336 3.710098 3.469175c8.346983-6.380847 17.0940772-20.0993736 17.0940772-20.0993736 1.97631487-2.2424123-.1169199-3.7504826-2.1649066-2.3979188 0 0-12.9703626 10.1148664-18.6392686 19.0281174z" fill="url(#f)" stroke="#673907"/><path d="m-30.449715 32.813894 2.24632 1.93382 8.492766-7.367031.275061-.705828 1.094405-.01782c-.4375-1.5625-2.941514-4.383455-4.816514-4.383455l.08202 1.090075-.669991.380027-6.704066 9.070207z" fill="url(#e)" stroke="#888a85"/><path d="m-23.801371 28.376767-4.364933 5.266471" fill="none" stroke="#fff" stroke-linejoin="round"/></g><path d="m-45.341208 42.769835c10.443958 0 18.370039 1.24373 19.870605-6.354738 1.209249-6.123314-7.210534-9.057368-11.38287-3.590861-4.019277 5.265971-8.487735 9.945599-8.487735 9.945599z" fill="url(#d)"/><path d="m8.8749989 37.75a1.2499999 1.2499999 0 1 1 -2.4999997 0 1.2499999 1.2499999 0 1 1 2.4999997 0z" fill="#fff" opacity=".527778" transform="matrix(2.069903 0 0 2.069903 -44.75012 -41.50978)"/><path d="m8.8749989 37.75a1.2499999 1.2499999 0 1 1 -2.4999997 0 1.2499999 1.2499999 0 1 1 2.4999997 0z" fill="#fff" transform="matrix(1.396669 0 0 1.396669 -32.05526 -25.87664)"/><path d="m-38.543723 40.909242s3.72152.0943 6.116538-1.411995c.847351-.532923 1.515774.649985.493819 1.087367-2.207394.944732-6.610357.324628-6.610357.324628z" fill="url(#c)" opacity=".427778"/></g><path d="m23.003067 31.736544c1.497372.143092 2.849629-.272213 3.411893-.474047.09822-.555386.536552-1.621257 2.046088-1.691468l-.53033-.928077s-1.966641 1.347921-4.065864 1.745669z" fill="url(#l)" fill-rule="evenodd"/></g></svg>