<svg height="64" width="64" xmlns="http://www.w3.org/2000/svg" xmlns:xlink="http://www.w3.org/1999/xlink"><linearGradient id="a" gradientUnits="userSpaceOnUse" x1="64.08" x2="64.08" y1="32.126" y2="66.812"><stop offset="0" stop-color="#81b4e0"/><stop offset="1" stop-color="#0c5a94"/></linearGradient><linearGradient id="b" gradientUnits="userSpaceOnUse" x1="65.595" x2="65.595" y1="2.11" y2="40.61"><stop offset="0" stop-color="#f06b59"/><stop offset="1" stop-color="#df2227"/></linearGradient><linearGradient id="c" gradientUnits="userSpaceOnUse" x1="28.269" x2="47.729" y1="83.175" y2="51.022"><stop offset="0" stop-color="#388b41"/><stop offset="1" stop-color="#4cb749"/></linearGradient><linearGradient id="d" gradientUnits="userSpaceOnUse" x1="93.461" x2="72.731" y1="86.594" y2="36.673"><stop offset="0" stop-color="#e4b022"/><stop offset=".3" stop-color="#fcd209"/></linearGradient><linearGradient id="e"><stop offset="0" stop-opacity=".15"/><stop offset=".3" stop-opacity=".06"/><stop offset="1" stop-opacity=".03"/></linearGradient><linearGradient id="f" gradientUnits="userSpaceOnUse" x1="34.711" x2="34.711" xlink:href="#e" y1="54.571" y2="20.726"/><linearGradient id="g" gradientUnits="userSpaceOnUse" x1="81.427" x2="58.159" xlink:href="#e" y1="65.501" y2="89.192"/><linearGradient id="h" gradientUnits="userSpaceOnUse" x1="81.09" x2="84.474" xlink:href="#e" y1="72.316" y2="38.896"/><g transform="matrix(.676853 0 0 .676853 -11.318754 -1.378687)"><circle cx="64.114" cy="49.495" fill="#fff" r="46.537"/><path d="m93.73 57.956c0-16.356-13.26-29.615-29.614-29.615s-29.616 13.259-29.616 29.615h8.46c0-11.683 9.47-21.153 21.152-21.153s21.153 9.47 21.153 21.153" fill-opacity=".1"/><circle cx="66.229" cy="55.417" fill-opacity=".1" r="16.077"/><circle cx="64.114" cy="49.494" fill="url(#a)" r="17.346"/><path d="m106.42 28.34c-11.647-23.432-40.086-32.988-63.52-21.34a47.37 47.37 0 0 0 -18.13 15.843l19.038 33c-3.508-11.143 2.686-23.02 13.83-26.527 1.96-.617 4-.944 6.053-.973" fill="url(#b)"/><path d="m24.77 22.84c-14.572 21.737-8.764 51.16 12.974 65.743 6.725 4.508 14.493 7.217 22.563 7.87l19.893-33.853c-7.435 9.012-20.767 10.3-29.778 2.854a21.14 21.14 0 0 1 -6.604-9.623" fill="url(#c)"/><path d="m60.307 96.455c26.094 1.973 48.847-17.582 50.82-43.676a47.38 47.38 0 0 0 -4.706-24.438h-42.721c11.683.054 21.1 9.567 21.056 21.25a21.16 21.16 0 0 1 -4.556 13.018" fill="url(#d)"/><path d="m24.77 22.84 19.038 33c-1.4-4.747-1.1-9.837.845-14.385l-19.038-19.883" fill="url(#f)"/><path d="m60.307 96.455 19.893-33.855a21.16 21.16 0 0 1 -12.269 7.192l-8.46 26.653" fill="url(#g)"/><path d="m106.42 28.34h-42.72c6.437.03 12.5 2.988 16.5 8.038l27.076-6.77" fill="url(#h)"/></g></svg>