<svg height="64" viewBox="0 0 5.12 5.12" width="64" xmlns="http://www.w3.org/2000/svg"><g fill-rule="evenodd" transform="matrix(2.242199 0 0 2.242199 -.682992 -2.821278)"><path d="m11.063 1.497 14.29-1.497 14.29 1.497 11.064 14.717-25.353 29.256-25.354-29.256z" fill="#fdb300" transform="matrix(.04503 0 0 .04503 .304608 1.37622)"/><g fill="#ea6c00"><path d="m10.27 0 15.084 29.08-25.354-29.08z" transform="matrix(.04503 0 0 .04503 .304608 2.114307)"/><path d="m10.27 0 15.085 29.08-25.355-29.08z" transform="matrix(-.04503 0 0 .04503 2.58808 2.114307)"/></g><path d="m0 0h30.108l-15.054 29.08z" fill="#fdad00" transform="matrix(.04503 0 0 .04503 .756709 2.114307)"/><g fill="#fdd231"><path d="m14.8 0-14.022 1.513-.778 14.877z" transform="matrix(.04503 0 0 .04503 .756709 1.37622)"/><path d="m14.8 0-14.022 1.513-.778 14.877z" transform="matrix(-.04503 0 0 .04503 2.112113 1.37622)"/></g><g fill="#fdad00"><path d="m0 14.805 11.093-14.805-.796 14.805z" transform="matrix(-.04503 0 0 .04503 2.58808 1.447638)"/><path d="m0 14.805 11.092-14.805-.796 14.805z" transform="matrix(.04503 0 0 .04503 .304629 1.44764158)"/></g><path d="m15.054 0-15.054 16.39h30.108z" fill="#feeeb7" transform="matrix(.04503 0 0 .04503 .7567302 1.376224)"/></g></svg>