<svg height="64" width="64" xmlns="http://www.w3.org/2000/svg" xmlns:xlink="http://www.w3.org/1999/xlink"><linearGradient id="a" gradientUnits="userSpaceOnUse"><stop offset=".18" stop-color="#0052cc"/><stop offset="1" stop-color="#2684ff"/></linearGradient><linearGradient id="b" x1="42.023" x2="44.133" xlink:href="#a" y1="35.232" y2="33.122"/><linearGradient id="c" x1="41.464" x2="39.35" xlink:href="#a" y1="29.159" y2="31.273"/><g transform="matrix(6.249587 0 0 6.249587 -228.82126 -169.26286)"><path d="m46.568 31.918-4.834-4.834-4.834 4.834a.406.406 0 0 0 0 .573l4.834 4.834 4.834-4.834a.406.406 0 0 0 0-.573zm-4.834 1.8-1.514-1.514 1.514-1.514 1.514 1.514z" fill="#2684ff"/><path d="m41.734 30.7a2.549 2.549 0 0 1 -.011-3.594l-3.323 3.302 1.803 1.803z" fill="url(#c)"/><path d="m43.252 32.2-1.518 1.518a2.549 2.549 0 0 1 0 3.606l3.32-3.32z" fill="url(#b)"/></g></svg>