<svg height="64" viewBox="0 0 64 64" width="64" xmlns="http://www.w3.org/2000/svg"><g stroke-width="2.34451" transform="matrix(3.6146015 0 0 3.6146015 -341.92293 -41.230406)"><path d="m112.30088 20.260784c0-4.889743-3.96382-8.853572-8.85298-8.853572-4.887388 0-8.849451 3.960297-8.852983 8.847097v-.000589 6.851056c.0029 1.109646.903464 2.007554 2.013112 2.007226h6.843401c4.88739-.0012 8.84945-3.96383 8.84945-8.851807z" fill="#294172"/><path d="m106.04611 13.506264c-2.29482 0-4.15513 1.860316-4.15513 4.155133v2.202062h-2.192647c-2.295654 0-4.155723 1.851239-4.155723 4.145716 0 2.294981 1.860451 4.155426 4.155428 4.155426 2.294982 0 4.155432-1.860445 4.155432-4.155426v-2.21148h2.19264c2.29507 0 4.15572-1.841232 4.15572-4.136298 0-2.295047-1.86067-4.155458-4.15572-4.155133zm-4.15454 10.507031c-.002 1.20991-.98333 2.189703-2.193237 2.189701-1.211399 0-2.201474-.983011-2.201474-2.193821 0-1.211399.990075-2.21148 2.201474-2.21148h1.883617c.1707 0 .30962.138328.30962.309619v1.905393zm4.15454-4.149836h-1.88361c-.171 0-.30962-.138621-.30962-.309619v-1.895975c.002-1.209909.98332-2.189702 2.19323-2.1897 1.2114 0 2.20206.981833 2.20206 2.193232-.004 1.21446-.9876 2.197919-2.20206 2.201474z" fill="#3c6eb4"/><path d="m101.89157 19.862871v-2.202651c.00032-2.294817 1.8609-4.15487 4.15572-4.154545.31038-.0022.61952.03938.91826.123612.46914.123024.85351.507987.85351.955934 0 .541539-.3932.93592-.98124.93592-.2796 0-.38085-.05415-.79112-.05415-1.20968.000324-2.1907.980022-2.19265 2.189701v1.895975c0 .170702.13833.310208.30962.310208h1.44097c.53683 0 .97006.42911.97006.967117.001.535684-.43439.969732-.97006.967118h-1.75059v2.21148c-.00032 2.294587-1.86054 4.154545-4.155129 4.154545-.310372.0021-.619497-.0395-.918261-.123612-.469138-.122435-.853513-.507987-.853513-.955934 0-.541539.393205-.93592.980657-.93592.280187 0 .381431.05415.791117.05415 1.209909.000001 2.191289-.979792 2.193229-2.189701v-1.905393c0-.170998-.13862-.309619-.30962-.309619h-1.44096c-.535676.0029-.971308-.430844-.970649-.966529 0-.541539.438529-.967706.980659-.967706h1.74057z" fill="#fff"/></g></svg>